<?xml version="1.0" encoding="UTF-8" standalone="no"?>
<svg
   version="1.0"
   width="1144.8722pt"
   height="1150.5406pt"
   viewBox="0 0 1144.8722 1150.5406"
   preserveAspectRatio="xMidYMid"
   id="svg2"
   xmlns:xlink="http://www.w3.org/1999/xlink"
   xmlns="http://www.w3.org/2000/svg"
   xmlns:svg="http://www.w3.org/2000/svg">
  <defs
     id="defs2">
    <linearGradient
       id="swatch11">
      <stop
         style="stop-color:#ffc107;stop-opacity:1;"
         offset="0"
         id="stop11" />
    </linearGradient>
    <linearGradient
       id="swatch9">
      <stop
         style="stop-color:#00a655;stop-opacity:1;"
         offset="0"
         id="stop9" />
    </linearGradient>
    <linearGradient
       xlink:href="#swatch11"
       id="linearGradient11"
       x1="33.407448"
       y1="575.59662"
       x2="1110.2163"
       y2="575.59662"
       gradientUnits="userSpaceOnUse" />
  </defs>
  <g
     id="g11"
     transform="translate(0,-1.3314039)">
    <rect
       style="display:inline;opacity:1;mix-blend-mode:normal;fill:url(#linearGradient11);stroke:#ffc107;stroke-width:7.5;stroke-opacity:1"
       id="rect4"
       width="1055.5469"
       height="1053.4829"
       x="44.03846"
       y="47.478951"
       rx="80"
       ry="80" />
    <g
       transform="matrix(0.1,0,0,-0.1,0,1156)"
       fill="#000000"
       stroke="none"
       id="g2"
       style="display:inline;fill:#000000">
      <path
         d="m 1100,11535 c -225,-31 -385,-88 -556,-199 -242,-158 -426,-403 -513,-682 L 0,10555 2,5775 5,995 33,915 C 101,722 205,557 342,422 574,194 822,79 1150,50 c 91,-8 1365,-10 4650,-8 4220,3 4531,4 4616,20 486,92 853,419 1001,893 l 28,90 3,4710 c 2,3437 0,4726 -8,4770 -59,314 -264,626 -525,798 -168,110 -311,169 -495,204 -90,17 -331,18 -4660,19 -3713,2 -4583,0 -4660,-11 z m 9228,-450 c 117,-19 228,-61 318,-121 222,-147 347,-363 374,-641 7,-72 10,-1609 10,-4568 0,-4798 2,-4551 -50,-4705 -98,-285 -310,-470 -630,-548 -59,-14 -498,-16 -4550,-19 -2875,-3 -4525,0 -4595,6 -228,20 -412,105 -560,256 -109,112 -187,261 -222,425 -17,81 -18,280 -18,4620 0,4333 1,4539 18,4624 25,123 57,203 123,303 129,199 327,327 568,367 67,12 840,14 4601,15 3989,1 4531,-1 4613,-14 z"
         id="path1"
         style="display:inline;fill:#000000" />
      <path
         d="m 3575,10003 c -86,-11 -308,-57 -379,-80 -279,-87 -566,-263 -768,-469 -264,-270 -433,-610 -495,-999 -17,-103 -18,-247 -18,-2180 0,-2313 -5,-2139 71,-2397 59,-201 126,-346 245,-524 78,-116 263,-312 376,-397 185,-141 436,-264 658,-323 255,-68 226,-66 1162,-73 468,-3 854,-8 857,-11 2,-3 -37,-39 -89,-80 -407,-327 -824,-662 -999,-805 -114,-93 -225,-183 -245,-198 -20,-15 -37,-32 -39,-37 -5,-14 3747,-13 3938,0 286,21 493,76 738,199 271,135 497,331 656,571 164,246 222,430 247,779 19,258 1,450 -94,1001 -51,291 -59,445 -64,1237 -5,720 4,1073 31,1203 8,36 12,68 9,73 -2,4 -884,7 -1959,7 H 5460 v -765 -765 h 273 c 149,0 315,-2 367,-4 52,-2 303,-4 558,-5 l 462,-1 v -382 l -1,-383 -44,-60 c -24,-33 -76,-106 -117,-163 -40,-57 -100,-141 -133,-188 -33,-46 -136,-190 -230,-319 -203,-281 -236,-328 -335,-466 -41,-59 -180,-255 -309,-435 -129,-181 -289,-405 -355,-499 -66,-93 -136,-192 -156,-220 -21,-27 -50,-69 -65,-92 l -28,-43 h -148 -149 l 68,87 c 38,49 134,174 213,278 80,105 258,335 396,512 139,177 275,353 305,390 140,181 246,317 393,502 88,111 196,248 240,305 185,240 316,406 325,411 6,3 10,13 10,20 0,13 -211,15 -1512,17 l -1513,3 -58,23 c -122,50 -222,163 -246,279 -9,44 -11,469 -9,1784 l 3,1725 33,66 c 40,77 109,151 172,183 113,57 63,55 1613,55 1128,0 1427,-3 1434,-12 5,-7 42,-119 82,-248 40,-129 87,-280 104,-335 l 32,-100 1045,-3 c 575,-1 1055,0 1066,3 29,7 32,48 23,290 -16,408 -76,661 -238,1000 -103,215 -207,362 -381,535 -294,295 -655,470 -1070,520 -79,9 -3930,13 -4005,3 z"
         id="path2"
         style="display:inline;fill:#000000" />
    </g>
  </g>
</svg>
